<?xml version="1.0" encoding="utf-8"?>
<!-- Generator: Adobe Illustrator 21.0.2, SVG Export Plug-In . SVG Version: 6.00 Build 0)  -->
<svg version="1.1" xmlns="http://www.w3.org/2000/svg" xmlns:xlink="http://www.w3.org/1999/xlink" x="0px" y="0px"
	 viewBox="0 0 1920 1080" style="enable-background:new 0 0 1920 1080;" xml:space="preserve">
<style type="text/css">
	.st0{fill:#517384;}
	.st1{display:none;}
	.st2{fill:#BFA161;}
	.st3{display:inline;fill:#FFFFFF;}
	.st4{fill:#FFFFFF;}
	.st5{display:none;fill:#FFFFFF;}
</style>
<g id="A">
	<polygon class="st0" points="248.5,630 444,216 516,216 320.5,630 	"/>
	<polygon class="st1" points="450,216 144,864 72,864 378,216 	"/>
	<polygon class="st0" points="197.5,738 138,864 210,864 269.5,738 	"/>
	<g id="Layer_5">
		<polyline class="st2" points="185,648 151,720 426,720 426,648 		"/>
	</g>
	<g id="Layer_3" class="st1">
		<polygon class="st3" points="171,630 288,630 288,648 162,648 		"/>
		<polyline class="st3" points="126,720 234,720 234,738 126,738 		"/>
	</g>
	<polyline class="st0" points="444,216 372,792 444,792 516,216 	"/>
</g>
<g id="L">
	<path class="st0" d="M534,360c24,0,48,0,72,0c-15,120-30,240-45,360c27,0.1,54.1,0.2,81.1,0.4c-3,23.9-6.1,47.8-9.1,71.6
		c-51,0-102,0-153,0C498,648,516,504,534,360z"/>
</g>
<g id="F">
	<path class="st0" d="M723,360c48,0,96,0,144,0c-3,24-6,48-9,72c-24,0-48,0-72,0c-4.7,36-9.3,72-14,108c24,0,48,0,72,0
		c-3,24-6,48-9,72c-24,0-48,0-72,0c-7.3,60-14.7,120-22,180c-24,0-48,0-72,0C687,648,705,504,723,360z"/>
</g>
<g id="E_1_">
	<path class="st0" d="M903,360c48,0,96,0,144,0c-3,24-6,48-9,72c-24,0-48,0-72,0c-4.7,36-9.3,72-14,108c24.3,0,48.7,0,73,0
		c-3.3,24-6.7,48-10,72c-24,0-48,0-72,0c-4.3,36-8.7,72-13,108c24,0,48,0,72,0c-3,24-6,48-9,72c-48.2,0-96.3,0.1-144.5,0.1
		C866.7,648.1,884.8,504,903,360z"/>
</g>
<g id="R">
	<g>
		<path class="st0" d="M1107,792c-24,0-48,0-72,0c18-143.9,35.9-287.7,53.9-431.6c63.3-0.4,110.2,0.1,128.3,0.1c5.2,0,17.2-0.1,26,8
			c1.1,1.1,3.4,3.3,5.9,8c7.2,13.2,6.8,27.9,5.7,36.9c-6.4,49-12.9,98-19.3,147c-1,6.3-3.6,12.2-7.8,17.6
			c-4.3,5.4-10.7,8.1-19.3,8.2c1.9,0.6,4.8,1.7,7.6,4.1c3.8,3.2,5.3,7,6,8.7c6.8,16.9,4,34.4,4,34.4c-2.7,18.6-5.4,37.5-7.9,56.6
			c-4.6,34.6-8.6,68.6-12.1,102c-21,0-42,0-63,0c10.1-93.7,17.4-161.8,18.2-167.3c0.1-0.9,0.6-4.1-1-7c-1.2-2.2-3-3.3-4-3.9
			c-2.4-1.5-4.8-1.8-6-1.9c-7.7,0.1-15.4,0.2-23,0.3C1120.4,672.1,1113.7,732,1107,792z M1157.9,539.9c0.9,0.2,2.4,0.3,4,0
			c3-0.6,4.9-2.1,6-3.1c3.9-3.3,5.2-7.7,5.6-9.5l11.1-80.2c0.1-0.8,0.8-5.9-3-10.3c-3.6-4.2-8.4-4.5-9.3-4.5
			c-7.3,0-14.5-0.1-21.8-0.1c-5.2,36-10.5,72-15.7,108C1142.5,540.1,1150.2,540,1157.9,539.9z"/>
	</g>
</g>
<g id="E">
	<path class="st0" d="M1303,360c48,0,96,0,144,0c-3,24-6,48-9,72c-24,0-48,0-72,0c-4.7,36-9.3,72-14,108c24.3,0,48.7,0,73,0
		c-3.3,24-6.7,48-10,72c-24,0-48,0-72,0c-4.3,36-8.7,72-13,108c24,0,48,0,72,0c-3,24-6,48-9,72c-48.2,0-96.3,0.1-144.5,0.1
		C1266.7,648.1,1284.8,504,1303,360z"/>
</g>
<g id="X">
	<path class="st0" d="M1415,792c90-168,180-336,270-504c24,0,48,0,72,0c-90.3,168-180.7,336-271,504H1415z"/>
	<path class="st0" d="M1478,360c33,144,66,288,99,432c24,0,48,0,72,0c-33-144-66-288-99-432H1478z"/>
	<g id="Layer_10" class="st1">
		<polygon class="st4" points="1467,360 1611,792 1629,792 1485,360 		"/>
		<polygon class="st3" points="1377,360 1521,792 1539,792 1395,360 		"/>
	</g>
	<path class="st5" d="M1463.1,683.2c36-50.4,72-100.8,108-151.2c7.2,0,14.4,0,21.6,0c-36.1,50.4-72.2,100.8-108.3,151.2H1463.1z"/>
</g>
<g id="Layer_11">
	<path class="st0" d="M228,864l26-54c466.3,0,932.7,0,1399,0c5,18,10,36,15,54"/>
</g>
</svg>
